Simulation
nRows=46
nColumns=15
endheader
time  TH_x TH_y TH_z SC_y  SC_z  SC_x  AC_y  AC_z  AC_x  GH_y  GH_z  GH_yy  EL_x  PS_y
7.203000000000001  0.000000  0.000000  0.000000  -28.70820507250763  7.5836022296740815  -1.9363777574798093  51.91749441602245  10.37984777876421  3.6688121795725324  66.90698384559366  15.687598668925974  -4.566056892625211  13.187414091185076  120.000000
7.251020000000001  0.000000  0.000000  0.000000  -28.4377711832747  7.291475560581016  -3.23048119577068  51.42911728694535  11.029236059679068  3.866590463937544  63.285309088331516  19.35958833852599  -2.4011492346476273  12.597017772620758  120.000000
7.2990400000000015  0.000000  0.000000  0.000000  -28.297788955593795  7.048015662225966  -4.419477045640265  50.97832993635402  11.818286530095312  4.123914888797419  60.813546186714575  23.422276824324527  -1.5462008138700019  12.108114541270025  120.000000
7.347060000000001  0.000000  0.000000  0.000000  -28.274999881104236  6.843287529577264  -5.504417620903645  50.58821342955573  12.692971054658468  4.442243486649061  59.04201718424277  27.792155557354057  -1.4907065597081455  11.710298212534491  120.000000
7.395080000000001  0.000000  0.000000  0.000000  -28.346094931486256  6.668634962851483  -6.494989783916921  50.27986190833612  13.606435069920376  4.817702169511362  57.70840477983554  32.38110319401536  -1.9104106364890234  11.386127388799881  120.000000
7.443100000000001  0.000000  0.000000  0.000000  -28.482183591710676  6.52006317755958  -7.404691964377102  50.06903173652487  14.525067104326634  5.240667840661161  56.654890489179195  37.09778982490721  -2.5981606803250217  11.11945049764371  120.000000
7.491120000000001  0.000000  0.000000  0.000000  -28.660246853482203  6.392828967825754  -8.244452783470164  49.95691651325789  15.427491654084822  5.704194495947366  55.77913174947285  41.851766422633496  -3.4243909892090483  10.89877881598769  120.000000
7.5391400000000015  0.000000  0.000000  0.000000  -28.867902822927313  6.282424055086294  -9.019125707954144  49.932294473186914  16.306014707863916  6.2061015454769874  55.00744030446431  46.56284620438517  -4.311935545344201  10.716266386364707  120.000000
7.587160000000001  0.000000  0.000000  0.000000  -29.098754930050386  6.187260532776136  -9.731768129368048  49.98209512138306  17.16306916368359  6.744145674425352  54.284046600757435  51.16345474033336  -5.2187855762699815  10.566741953610167  120.000000
7.635180000000001  0.000000  0.000000  0.000000  -29.348557321010727  6.107515163368006  -10.386497007526174  50.096283135818766  18.004018042953334  7.311325202502495  53.5654150923652  55.59435111945751  -6.12540738572248  10.446912916267463  120.000000
7.683200000000001  0.000000  0.000000  0.000000  -29.614522209907864  6.045137716597555  -10.98856368965865  50.26497882543727  18.833042333322105  7.898264821990261  52.816030935606655  59.80083180300978  -7.024941426526151  10.354832435941672  120.000000
7.731220000000001  0.000000  0.000000  0.000000  -29.893170457905796  6.001248026079433  -11.543840410915838  50.4767341449521  19.650047024736285  8.49763947077036  52.009349533867535  63.73176328788504  -7.918329786579791  10.289670338206111  120.000000
7.7792400000000015  0.000000  0.000000  0.000000  -30.178314547996454  5.974704831207354  -12.058793735280505  50.72095327353741  20.44997100067907  9.105627259139267  51.12964458832746  67.34068531836583  -8.811583249486741  10.2516579117769  120.000000
7.827260000000001  0.000000  0.000000  0.000000  -30.46115287214984  5.962931421694628  -12.538980181735013  50.989410615539825  21.226145464826196  9.721193647726647  50.17237227086338  70.58836705163384  -9.711173004610465  10.241179588140982  120.000000
7.875280000000001  0.000000  0.000000  0.000000  -30.73142824730963  5.9644115427696045  -12.985786874031747  51.276441763670874  21.975107430514157  10.344058547050778  49.14294609070715  73.44597531256973  -10.618999257242741  10.256778699897309  120.000000
7.923300000000001  0.000000  0.000000  0.000000  -30.979796755453055  5.980383941603783  -13.393402559816284  51.575975544931744  22.70017506737675  10.973224806669315  48.05516099428074  75.8977676755843  -11.527096132597391  10.293051393178994  120.000000
7.971320000000001  0.000000  0.000000  0.000000  -31.20020430326155  6.0156554009025625  -13.748190373296149  51.87877643389589  23.41074961328093  11.60492189409111  46.92939201599646  77.94238589543761  -12.416042564688096  10.339647688121469  120.000000
8.019340000000001  0.000000  0.000000  0.000000  -31.392104311382813  6.076839521940305  -14.032585208487339  52.1700459998953  24.116894963058257  12.232195223876804  45.79249764682551  79.59216679480477  -13.257519647497475  10.383127771485084  120.000000
8.06736  0.000000  0.000000  0.000000  -31.560137041033226  6.169177391823986  -14.232298188845911  52.4306879571507  24.822064153026282  12.844540014022352  44.67918168700831  80.8713971308584  -14.021728849504726  10.410457793459878  120.000000
8.115380000000002  0.000000  0.000000  0.000000  -31.711897468463192  6.29286116140079  -14.345015206725536  52.641179421557965  25.517315472814815  13.429050876452354  43.63615939666268  81.81520776640062  -14.686386342707369  10.413830763050134  120.000000
8.163400000000001  0.000000  0.000000  0.000000  -31.85418335710694  6.440107585948584  -14.386880854897584  52.78615416189986  26.179388788243507  13.971557912700764  42.72511071361581  82.47012607033855  -15.24675278238305  10.393105308482893  120.000000
8.21142  0.000000  0.000000  0.000000  -31.98911733610528  6.596904373235653  -14.392981485785825  52.86010701502282  26.775966422619984  14.456787663890417  42.00720882982257  82.88961554370714  -15.701215401109385  10.355859423969028  120.000000
8.259440000000001  0.000000  0.000000  0.000000  -32.108754840348006  6.743872085971551  -14.410782762343759  52.8702324249203  27.27253765003145  14.869122578680019  41.521628826238036  83.1270994323104  -16.02515034026897  10.314469023528614  120.000000
8.30746  0.000000  0.000000  0.000000  -32.19955083552826  6.862111157117219  -14.489403225958378  52.83039947051392  27.640795110339642  15.193477572295631  41.28997013077429  83.22569246920926  -16.183314776871736  10.280012624518546  120.000000
8.355480000000002  0.000000  0.000000  0.000000  -32.248489898710964  6.935653311689903  -14.669820475741657  52.75027801518354  27.86422564336504  15.419936968559671  41.32989602098008  83.20832705361525  -16.154078282376894  10.255895696457689  120.000000
8.403500000000001  0.000000  0.000000  0.000000  -32.24641040786112  6.956411732962494  -14.974214742388337  52.63130725295349  27.9437885010961  15.545829852063658  41.653723274871815  83.05933364361498  -15.936390637811815  10.235973615064136  120.000000
8.451520000000002  0.000000  0.000000  0.000000  -32.18679927365963  6.923754437203527  -15.398480908747441  52.466035797852015  27.90037288961073  15.581710489687554  42.264610377735075  82.70854099032216  -15.557114758611803  10.20752964570578  120.000000
8.499540000000001  0.000000  0.000000  0.000000  -32.0629679561284  6.840563817666099  -15.923812612130593  52.245607851722724  27.76277059450959  15.543457514183658  43.14555287000657  82.06088054909344  -15.041227392496454  10.156009142159798  120.000000
8.54756  0.000000  0.000000  0.000000  -31.864945663791257  6.7115922915089  -16.529113645454743  51.96891855708736  27.5592856235737  15.443615228613153  44.247808176409386  81.02359796650076  -14.382566877279796  10.073978652393011  120.000000
8.595580000000002  0.000000  0.000000  0.000000  -31.58553815059137  6.540340728048036  -17.193721990991097  51.63632846920361  27.31115103035521  15.295948190741345  45.50699763661288  79.5158569961247  -13.570186586678567  9.965987773595156  120.000000
8.643600000000001  0.000000  0.000000  0.000000  -31.227680878596846  6.3300842623211055  -17.901548975649938  51.24501304935297  27.03071872278729  15.114976789518506  46.86196808275193  77.47919870020003  -12.607943949776567  9.850494268924363  120.000000
8.691620000000002  0.000000  0.000000  0.000000  -30.80286026577415  6.086630420296066  -18.640591958247548  50.79066643443801  26.723886141972056  14.914257659763686  48.25420844402422  74.8773343699587  -11.505221783448382  9.7565546919562  120.000000
8.739640000000001  0.000000  0.000000  0.000000  -30.332198476092998  5.822002917146304  -19.39810933548507  50.27132222410321  26.3948756415099  14.701742240296182  49.627025947317684  71.6998307778045  -10.270600515306908  9.718214218417597  120.000000
8.78766  0.000000  0.000000  0.000000  -29.842091821433087  5.554337613871951  -20.151891839692432  49.69006648262295  26.053290199811403  14.483193568854691  50.92527162399658  67.96869869681  -8.905799798488639  9.768458663903473  120.000000
8.835680000000002  0.000000  0.000000  0.000000  -29.36187563189528  5.304151960448242  -20.86847519515969  49.05756010207638  25.716853909039585  14.267242772980813  52.09751155637308  63.74256189389526  -7.40392266992358  9.936795696037287  120.000000
8.883700000000001  0.000000  0.000000  0.000000  -28.916689656200322  5.090793439921578  -21.50634851847434  48.39817252489225  25.408968486527787  14.064125157537338  53.09908503256981  59.11331188511983  -5.750454087999669  10.247223858265752  120.000000
8.931720000000002  0.000000  0.000000  0.000000  -28.526160144848685  4.928927764022015  -22.02152328820382  47.752299742741094  25.14744742971803  13.882151347460747  53.89651622698737  54.19700668884595  -3.931202726886126  10.718515776613584  120.000000
8.979740000000001  0.000000  0.000000  0.000000  -28.20163362724403  4.827007282749103  -22.376347321811124  47.17385787705881  24.937499927731487  13.724476117752527  54.47046854432181  49.11968007164814  -1.9408271745322494  11.35957572307786  120.000000
9.02776  0.000000  0.000000  0.000000  -27.9508767695151  4.784841284482303  -22.545747285123316  46.720136606521784  24.76457019138745  13.58970513776101  54.82088219793335  44.0037270542008  0.20304762144613245  12.163190574724693  120.000000
9.075780000000002  0.000000  0.000000  0.000000  -27.77686725029675  4.797613894960468  -22.52046575173674  46.4415679622766  24.600335450909398  13.473709017410423  54.970538241704276  38.957283251272365  2.4514341720768886  13.100621616731345  120.000000
9.123800000000001  0.000000  0.000000  0.000000  -27.685149574637222  4.858126570289356  -22.304605503098582  46.369504471858924  24.409878892289917  13.373506364859601  54.972689841415146  34.070839320148394  4.7113859565899245  14.12475880955401  120.000000
9.171820000000002  0.000000  0.000000  0.000000  -27.676554672323014  4.965549888414001  -21.90732938131284  46.51841378844714  24.165591200985226  13.282041352146605  54.91970081751491  29.41748363468008  6.8420977419551035  15.177406326668892  120.000000
9.219840000000001  0.000000  0.000000  0.000000  -27.75133059156579  5.127511749520426  -21.328560254764223  46.880679684214805  23.86126619299785  13.194832438815734  54.955926719458624  25.063733600753316  8.640822115949682  16.194071470298418  120.000000
9.26786  0.000000  0.000000  0.000000  -27.905044992238786  5.358101344108756  -20.555700680046638  47.430503553593724  23.514198030086277  13.106886470979646  55.29084813560409  21.064012151602974  9.840174822328331  17.106607656863577  120.000000
9.315880000000002  0.000000  0.000000  0.000000  -28.138149097848515  5.6730100572216475  -19.569589751737528  48.117297972462794  23.15415236245103  13.014589852500224  56.225492232549755  17.449466702456036  10.086976043676126  17.84573149883537  120.000000
9.363900000000001  0.000000  0.000000  0.000000  -28.456803750161516  6.077180352876001  -18.347616852746533  48.87608634749691  22.815565306829257  12.921060298445893  58.186484428553  14.234855967828363  8.914642270785071  18.34195228423765  120.000000
